<svg xmlns="http://www.w3.org/2000/svg" xmlns:xlink="http://www.w3.org/1999/xlink" width="800" zoomAndPan="magnify" viewBox="0 0 600 374.999991" height="500" preserveAspectRatio="xMidYMid meet" version="1.0"><defs><g/><clipPath id="baec33c09d"><rect x="0" width="382" y="0" height="199"/></clipPath><clipPath id="6a0f8acbdd"><path d="M 104 311 L 121 311 L 121 316.496094 L 104 316.496094 Z M 104 311 " clip-rule="nonzero"/></clipPath><clipPath id="5d0c5d91bd"><path d="M 12.394531 85 L 84 85 L 84 152 L 12.394531 152 Z M 12.394531 85 " clip-rule="nonzero"/></clipPath><clipPath id="09aee4c9eb"><rect x="0" width="349" y="0" height="121"/></clipPath><clipPath id="a6530a61b0"><path d="M 254.605469 261 L 530.605469 261 L 530.605469 273.738281 L 254.605469 273.738281 Z M 254.605469 261 " clip-rule="nonzero"/></clipPath></defs><g transform="matrix(1, 0, 0, 1, 214, 132)"><g clip-path="url(#baec33c09d)"><g fill="#ffa500" fill-opacity="1"><g transform="translate(7.474553, 141.050459)"><g><path d="M 20.609375 51.671875 L 20.46875 51.671875 C 19.71875 51.578125 19.054688 51.242188 18.484375 50.671875 C 17.921875 50.109375 17.6875 49.453125 17.78125 48.703125 C 18.632812 34.960938 19.222656 21.128906 19.546875 7.203125 C 19.878906 -6.722656 20.28125 -20.65625 20.75 -34.59375 C 17.363281 -29.039062 13.925781 -25.0625 10.4375 -22.65625 C 6.957031 -20.257812 3.851562 -19.0625 1.125 -19.0625 C -1.039062 -19.0625 -2.804688 -19.789062 -4.171875 -21.25 C -5.535156 -22.707031 -6.21875 -24.660156 -6.21875 -27.109375 C -6.21875 -29.171875 -5.695312 -31.519531 -4.65625 -34.15625 C -3.625 -36.789062 -1.929688 -39.617188 0.421875 -42.640625 C 2.023438 -44.796875 4.539062 -47.378906 7.96875 -50.390625 C 11.40625 -53.410156 15.851562 -55.765625 21.3125 -57.453125 C 22.351562 -57.828125 23.222656 -57.6875 23.921875 -57.03125 C 24.628906 -56.375 24.984375 -55.625 24.984375 -54.78125 C 24.984375 -54.019531 24.796875 -53.453125 24.421875 -53.078125 C 25.359375 -53.078125 25.992188 -52.796875 26.328125 -52.234375 C 26.660156 -51.671875 26.828125 -50.070312 26.828125 -47.4375 C 26.828125 -44.613281 26.660156 -39.976562 26.328125 -33.53125 C 25.992188 -27.082031 25.734375 -17.832031 25.546875 -5.78125 L 24.703125 21.59375 C 24.421875 30.539062 24 39.671875 23.4375 48.984375 C 23.34375 50.773438 22.398438 51.671875 20.609375 51.671875 Z M -0.421875 -25.96875 C -0.234375 -25.125 0.328125 -24.703125 1.265625 -24.703125 C 2.773438 -24.703125 4.914062 -25.804688 7.6875 -28.015625 C 10.46875 -30.234375 13.175781 -33.316406 15.8125 -37.265625 C 18.445312 -41.222656 20.328125 -45.789062 21.453125 -50.96875 C 21.640625 -51.4375 21.734375 -51.671875 21.734375 -51.671875 C 17.222656 -50.160156 13.296875 -47.851562 9.953125 -44.75 C 6.609375 -41.644531 4.019531 -38.441406 2.1875 -35.140625 C 0.351562 -31.847656 -0.5625 -29.171875 -0.5625 -27.109375 C -0.5625 -26.441406 -0.515625 -26.0625 -0.421875 -25.96875 Z M -0.421875 -25.96875 "/></g></g></g><g fill="#ffa500" fill-opacity="1"><g transform="translate(44.175362, 141.050459)"><g><path d="M 9.453125 -17.359375 C 6.066406 -17.359375 3.757812 -18.863281 2.53125 -21.875 C 1.3125 -24.894531 0.703125 -28.472656 0.703125 -32.609375 C 0.703125 -35.804688 0.9375 -39.050781 1.40625 -42.34375 C 1.882812 -45.644531 2.359375 -48.566406 2.828125 -51.109375 C 3.203125 -52.890625 4.332031 -53.640625 6.21875 -53.359375 C 8 -52.984375 8.75 -51.851562 8.46875 -49.96875 C 8 -47.90625 7.53125 -45.15625 7.0625 -41.71875 C 6.59375 -38.28125 6.359375 -34.914062 6.359375 -31.625 C 6.546875 -25.789062 7.671875 -22.875 9.734375 -22.875 C 11.242188 -22.875 12.984375 -24.210938 14.953125 -26.890625 C 16.929688 -29.578125 18.910156 -33.203125 20.890625 -37.765625 C 22.867188 -42.328125 24.515625 -47.429688 25.828125 -53.078125 C 26.304688 -54.492188 27.25 -55.203125 28.65625 -55.203125 C 29.40625 -55.203125 30.0625 -54.894531 30.625 -54.28125 C 31.195312 -53.664062 31.484375 -52.984375 31.484375 -52.234375 C 31.390625 -51.203125 31.25 -49.414062 31.0625 -46.875 C 30.875 -44.332031 30.78125 -41.695312 30.78125 -38.96875 C 30.78125 -36.332031 30.941406 -33.953125 31.265625 -31.828125 C 31.597656 -29.710938 32.28125 -28.421875 33.3125 -27.953125 C 34.445312 -27.390625 36.332031 -28.140625 38.96875 -30.203125 C 41.601562 -32.273438 44.660156 -36.46875 48.140625 -42.78125 C 48.515625 -43.71875 49.316406 -44.1875 50.546875 -44.1875 C 51.109375 -44.1875 51.578125 -44.09375 51.953125 -43.90625 C 52.890625 -43.34375 53.359375 -42.492188 53.359375 -41.359375 C 53.359375 -40.796875 53.265625 -40.328125 53.078125 -39.953125 C 49.503906 -33.554688 46.066406 -28.96875 42.765625 -26.1875 C 39.472656 -23.40625 36.554688 -22.015625 34.015625 -22.015625 C 31.578125 -22.015625 29.601562 -23.097656 28.09375 -25.265625 C 26.582031 -27.429688 25.640625 -30.300781 25.265625 -33.875 C 24.328125 -31.625 23.082031 -29.226562 21.53125 -26.6875 C 19.976562 -24.144531 18.210938 -21.953125 16.234375 -20.109375 C 14.253906 -18.273438 11.992188 -17.359375 9.453125 -17.359375 Z M 9.453125 -17.359375 "/></g></g></g><g fill="#ffa500" fill-opacity="1"><g transform="translate(91.18062, 141.050459)"><g><path d="M 14.828125 -18.78125 C 9.085938 -18.78125 5.015625 -20.164062 2.609375 -22.9375 C 0.210938 -25.71875 -0.984375 -28.988281 -0.984375 -32.75 C -0.984375 -36.226562 -0.160156 -39.800781 1.484375 -43.46875 C 3.128906 -47.144531 5.316406 -50.300781 8.046875 -52.9375 C 9.835938 -54.632812 11.554688 -55.832031 13.203125 -56.53125 C 14.847656 -57.238281 16.375 -57.59375 17.78125 -57.59375 C 20.039062 -57.59375 21.875 -56.882812 23.28125 -55.46875 C 24.695312 -54.0625 25.40625 -52.320312 25.40625 -50.25 C 25.40625 -47.8125 24.347656 -45.484375 22.234375 -43.265625 C 20.117188 -41.054688 17.484375 -39.222656 14.328125 -37.765625 C 11.171875 -36.304688 7.992188 -35.4375 4.796875 -35.15625 C 4.703125 -34.6875 4.628906 -34.257812 4.578125 -33.875 C 4.535156 -33.5 4.515625 -33.125 4.515625 -32.75 C 4.515625 -29.738281 5.476562 -27.597656 7.40625 -26.328125 C 9.34375 -25.054688 11.628906 -24.421875 14.265625 -24.421875 C 16.140625 -24.421875 18.019531 -24.675781 19.90625 -25.1875 C 21.789062 -25.707031 23.53125 -26.394531 25.125 -27.25 C 27.945312 -28.84375 30.695312 -31.050781 33.375 -33.875 C 36.0625 -36.695312 38.628906 -40.179688 41.078125 -44.328125 C 41.640625 -45.171875 42.441406 -45.59375 43.484375 -45.59375 C 44.046875 -45.59375 44.515625 -45.453125 44.890625 -45.171875 C 45.828125 -44.796875 46.296875 -44 46.296875 -42.78125 C 46.296875 -42.300781 46.15625 -41.828125 45.875 -41.359375 C 40.601562 -32.703125 35.257812 -26.773438 29.84375 -23.578125 C 24.4375 -20.378906 19.429688 -18.78125 14.828125 -18.78125 Z M 6.78125 -41.21875 C 9.132812 -41.59375 11.320312 -42.34375 13.34375 -43.46875 C 15.363281 -44.601562 16.984375 -45.875 18.203125 -47.28125 C 19.429688 -48.695312 19.90625 -49.925781 19.625 -50.96875 C 19.53125 -51.625 18.960938 -51.953125 17.921875 -51.953125 C 16.609375 -51.953125 14.890625 -51.148438 12.765625 -49.546875 C 10.648438 -47.953125 8.65625 -45.175781 6.78125 -41.21875 Z M 6.78125 -41.21875 "/></g></g></g><g fill="#ffa500" fill-opacity="1"><g transform="translate(130.42226, 141.050459)"><g/></g></g><g fill="#ffa500" fill-opacity="1"><g transform="translate(158.653653, 141.050459)"><g><path d="M 12.84375 -19.0625 C 10.769531 -19.0625 9.023438 -19.976562 7.609375 -21.8125 C 6.203125 -23.644531 5.050781 -26.039062 4.15625 -29 C 3.269531 -31.96875 2.632812 -35.144531 2.25 -38.53125 C 1.875 -41.925781 1.6875 -45.128906 1.6875 -48.140625 C 1.6875 -50.960938 1.832031 -53.363281 2.125 -55.34375 C 2.40625 -56.9375 3.34375 -57.734375 4.9375 -57.734375 C 5.882812 -57.734375 6.613281 -57.40625 7.125 -56.75 C 7.644531 -56.09375 7.859375 -55.34375 7.765625 -54.5 C 7.484375 -52.238281 7.34375 -49.882812 7.34375 -47.4375 C 7.34375 -43.757812 7.625 -40.25 8.1875 -36.90625 C 8.75 -33.570312 9.453125 -30.796875 10.296875 -28.578125 C 11.148438 -26.367188 11.953125 -25.078125 12.703125 -24.703125 C 13.265625 -24.609375 13.921875 -25.476562 14.671875 -27.3125 C 15.429688 -29.144531 16.1875 -31.398438 16.9375 -34.078125 C 17.6875 -36.765625 18.367188 -39.398438 18.984375 -41.984375 C 19.597656 -44.578125 20 -46.582031 20.1875 -48 L 20.609375 -49.96875 C 21.359375 -51.570312 22.488281 -52.140625 24 -51.671875 C 24.84375 -51.390625 25.40625 -50.988281 25.6875 -50.46875 C 25.96875 -49.945312 26.109375 -49.40625 26.109375 -48.84375 C 26.109375 -48.46875 26.0625 -48.160156 25.96875 -47.921875 C 25.875 -47.691406 25.828125 -47.484375 25.828125 -47.296875 C 26.015625 -46.628906 26.816406 -45.96875 28.234375 -45.3125 C 29.648438 -44.65625 31.390625 -44.328125 33.453125 -44.328125 C 35.710938 -44.328125 37.925781 -44.796875 40.09375 -45.734375 C 40.1875 -45.828125 40.515625 -45.875 41.078125 -45.875 C 42.492188 -45.875 43.390625 -45.3125 43.765625 -44.1875 C 43.953125 -43.4375 44.046875 -43.0625 44.046875 -43.0625 C 44.046875 -41.738281 43.429688 -40.890625 42.203125 -40.515625 C 39.378906 -39.296875 36.460938 -38.6875 33.453125 -38.6875 C 29.972656 -38.6875 27.007812 -39.4375 24.5625 -40.9375 C 24.09375 -39.050781 23.625 -37.304688 23.15625 -35.703125 C 22.6875 -34.109375 22.164062 -32.375 21.59375 -30.5 C 21.21875 -28.988281 20.722656 -27.335938 20.109375 -25.546875 C 19.503906 -23.765625 18.632812 -22.238281 17.5 -20.96875 C 16.375 -19.695312 14.820312 -19.0625 12.84375 -19.0625 Z M 12.84375 -19.0625 "/></g></g></g><g fill="#ffa500" fill-opacity="1"><g transform="translate(197.330664, 141.050459)"><g><path d="M 14.828125 -18.78125 C 9.085938 -18.78125 5.015625 -20.164062 2.609375 -22.9375 C 0.210938 -25.71875 -0.984375 -28.988281 -0.984375 -32.75 C -0.984375 -36.226562 -0.160156 -39.800781 1.484375 -43.46875 C 3.128906 -47.144531 5.316406 -50.300781 8.046875 -52.9375 C 9.835938 -54.632812 11.554688 -55.832031 13.203125 -56.53125 C 14.847656 -57.238281 16.375 -57.59375 17.78125 -57.59375 C 20.039062 -57.59375 21.875 -56.882812 23.28125 -55.46875 C 24.695312 -54.0625 25.40625 -52.320312 25.40625 -50.25 C 25.40625 -47.8125 24.347656 -45.484375 22.234375 -43.265625 C 20.117188 -41.054688 17.484375 -39.222656 14.328125 -37.765625 C 11.171875 -36.304688 7.992188 -35.4375 4.796875 -35.15625 C 4.703125 -34.6875 4.628906 -34.257812 4.578125 -33.875 C 4.535156 -33.5 4.515625 -33.125 4.515625 -32.75 C 4.515625 -29.738281 5.476562 -27.597656 7.40625 -26.328125 C 9.34375 -25.054688 11.628906 -24.421875 14.265625 -24.421875 C 16.140625 -24.421875 18.019531 -24.675781 19.90625 -25.1875 C 21.789062 -25.707031 23.53125 -26.394531 25.125 -27.25 C 27.945312 -28.84375 30.695312 -31.050781 33.375 -33.875 C 36.0625 -36.695312 38.628906 -40.179688 41.078125 -44.328125 C 41.640625 -45.171875 42.441406 -45.59375 43.484375 -45.59375 C 44.046875 -45.59375 44.515625 -45.453125 44.890625 -45.171875 C 45.828125 -44.796875 46.296875 -44 46.296875 -42.78125 C 46.296875 -42.300781 46.15625 -41.828125 45.875 -41.359375 C 40.601562 -32.703125 35.257812 -26.773438 29.84375 -23.578125 C 24.4375 -20.378906 19.429688 -18.78125 14.828125 -18.78125 Z M 6.78125 -41.21875 C 9.132812 -41.59375 11.320312 -42.34375 13.34375 -43.46875 C 15.363281 -44.601562 16.984375 -45.875 18.203125 -47.28125 C 19.429688 -48.695312 19.90625 -49.925781 19.625 -50.96875 C 19.53125 -51.625 18.960938 -51.953125 17.921875 -51.953125 C 16.609375 -51.953125 14.890625 -51.148438 12.765625 -49.546875 C 10.648438 -47.953125 8.65625 -45.175781 6.78125 -41.21875 Z M 6.78125 -41.21875 "/></g></g></g><g fill="#ffa500" fill-opacity="1"><g transform="translate(236.572304, 141.050459)"><g><path d="M 2.828125 -18.921875 C 1.972656 -18.921875 1.265625 -19.222656 0.703125 -19.828125 C 0.140625 -20.441406 -0.09375 -21.125 0 -21.875 C 0.1875 -26.394531 0.535156 -31.710938 1.046875 -37.828125 C 1.566406 -43.953125 2.207031 -49.742188 2.96875 -55.203125 C 3.0625 -55.953125 3.410156 -56.582031 4.015625 -57.09375 C 4.628906 -57.613281 5.316406 -57.78125 6.078125 -57.59375 C 6.828125 -57.5 7.457031 -57.125 7.96875 -56.46875 C 8.488281 -55.8125 8.65625 -55.101562 8.46875 -54.34375 C 8.1875 -52.375 7.925781 -50.210938 7.6875 -47.859375 C 7.457031 -45.503906 7.203125 -42.960938 6.921875 -40.234375 C 8.796875 -44.660156 10.675781 -48.492188 12.5625 -51.734375 C 14.445312 -54.984375 16.847656 -56.609375 19.765625 -56.609375 C 21.265625 -56.609375 22.625 -56.179688 23.84375 -55.328125 C 25.070312 -54.484375 26.019531 -53.265625 26.6875 -51.671875 C 27.15625 -50.535156 27.457031 -49.351562 27.59375 -48.125 C 27.738281 -46.90625 27.8125 -45.6875 27.8125 -44.46875 C 27.8125 -42.113281 27.832031 -39.945312 27.875 -37.96875 C 27.925781 -36 28.753906 -34.492188 30.359375 -33.453125 C 31.109375 -32.984375 31.953125 -32.75 32.890625 -32.75 C 34.585938 -32.75 36.328125 -33.382812 38.109375 -34.65625 C 39.898438 -35.925781 41.570312 -37.453125 43.125 -39.234375 C 44.675781 -41.023438 45.878906 -42.675781 46.734375 -44.1875 C 47.109375 -45.125 47.859375 -45.59375 48.984375 -45.59375 C 49.640625 -45.59375 50.160156 -45.453125 50.546875 -45.171875 C 51.484375 -44.796875 51.953125 -44 51.953125 -42.78125 C 51.953125 -42.300781 51.8125 -41.828125 51.53125 -41.359375 C 50.113281 -39.097656 48.414062 -36.863281 46.4375 -34.65625 C 44.46875 -32.445312 42.304688 -30.632812 39.953125 -29.21875 C 37.597656 -27.8125 35.148438 -27.109375 32.609375 -27.109375 C 30.628906 -27.109375 28.84375 -27.625 27.25 -28.65625 C 25.269531 -29.976562 23.925781 -31.507812 23.21875 -33.25 C 22.507812 -34.988281 22.15625 -36.84375 22.15625 -38.8125 C 22.15625 -40.789062 22.15625 -42.628906 22.15625 -44.328125 C 22.15625 -46.304688 21.921875 -48 21.453125 -49.40625 C 21.078125 -50.351562 20.609375 -50.828125 20.046875 -50.828125 C 19.015625 -50.828125 17.671875 -49.34375 16.015625 -46.375 C 14.367188 -43.40625 12.628906 -39.613281 10.796875 -35 C 8.960938 -30.394531 7.148438 -25.644531 5.359375 -20.75 C 4.984375 -19.53125 4.140625 -18.921875 2.828125 -18.921875 Z M 2.828125 -18.921875 "/></g></g></g><g fill="#ffa500" fill-opacity="1"><g transform="translate(281.601382, 141.050459)"><g><path d="M 41.78125 0 L 41.5 0 C 39.8125 0 38.875 -0.847656 38.6875 -2.546875 C 37.925781 -8.941406 37.359375 -16.066406 36.984375 -23.921875 C 36.609375 -31.785156 36.328125 -39.953125 36.140625 -48.421875 C 35.015625 -45.785156 33.484375 -42.773438 31.546875 -39.390625 C 29.617188 -36.003906 27.40625 -32.734375 24.90625 -29.578125 C 22.414062 -26.421875 19.757812 -23.832031 16.9375 -21.8125 C 14.113281 -19.789062 11.289062 -18.78125 8.46875 -18.78125 C 4.988281 -18.78125 2.398438 -19.976562 0.703125 -22.375 C -0.984375 -24.769531 -1.828125 -27.664062 -1.828125 -31.0625 C -1.828125 -34.070312 -1.21875 -37.148438 0 -40.296875 C 1.21875 -43.453125 3.003906 -46.367188 5.359375 -49.046875 C 7.710938 -51.734375 10.628906 -53.875 14.109375 -55.46875 C 17.597656 -57.070312 21.648438 -57.828125 26.265625 -57.734375 C 27.015625 -57.640625 27.671875 -57.3125 28.234375 -56.75 C 28.796875 -56.1875 29.03125 -55.53125 28.9375 -54.78125 C 28.9375 -54.019531 28.65625 -53.359375 28.09375 -52.796875 C 27.53125 -52.234375 26.867188 -52 26.109375 -52.09375 C 21.035156 -52.28125 16.847656 -51.195312 13.546875 -48.84375 C 10.253906 -46.488281 7.804688 -43.664062 6.203125 -40.375 C 4.609375 -37.082031 3.8125 -33.976562 3.8125 -31.0625 C 3.8125 -29.082031 4.1875 -27.457031 4.9375 -26.1875 C 5.695312 -24.914062 6.828125 -24.28125 8.328125 -24.28125 C 10.398438 -24.28125 12.847656 -25.550781 15.671875 -28.09375 C 21.597656 -33.363281 26.039062 -39.410156 29 -46.234375 C 31.96875 -53.054688 34.347656 -60.1875 36.140625 -67.625 C 36.140625 -69.03125 36.1875 -71.332031 36.28125 -74.53125 C 36.375 -77.738281 36.535156 -81.148438 36.765625 -84.765625 C 37.003906 -88.390625 37.359375 -91.660156 37.828125 -94.578125 C 38.304688 -97.503906 38.96875 -99.4375 39.8125 -100.375 C 40.375 -101.125 41.171875 -101.5 42.203125 -101.5 C 43.523438 -101.5 44.5625 -100.984375 45.3125 -99.953125 C 46.164062 -99.003906 46.59375 -97.117188 46.59375 -94.296875 C 46.59375 -92.046875 46.304688 -89.25 45.734375 -85.90625 C 45.171875 -82.5625 44.535156 -79.195312 43.828125 -75.8125 C 43.128906 -72.425781 42.445312 -69.460938 41.78125 -66.921875 L 41.78125 -58.4375 C 41.78125 -49.40625 41.96875 -39.992188 42.34375 -30.203125 C 42.726562 -20.421875 43.390625 -11.390625 44.328125 -3.109375 L 44.328125 -2.828125 C 44.328125 -1.128906 43.476562 -0.1875 41.78125 0 Z M 41.78125 0 "/></g></g></g><g fill="#ffa500" fill-opacity="1"><g transform="translate(332.84136, 141.050459)"><g><path d="M 14.828125 -18.78125 C 9.085938 -18.78125 5.015625 -20.164062 2.609375 -22.9375 C 0.210938 -25.71875 -0.984375 -28.988281 -0.984375 -32.75 C -0.984375 -36.226562 -0.160156 -39.800781 1.484375 -43.46875 C 3.128906 -47.144531 5.316406 -50.300781 8.046875 -52.9375 C 9.835938 -54.632812 11.554688 -55.832031 13.203125 -56.53125 C 14.847656 -57.238281 16.375 -57.59375 17.78125 -57.59375 C 20.039062 -57.59375 21.875 -56.882812 23.28125 -55.46875 C 24.695312 -54.0625 25.40625 -52.320312 25.40625 -50.25 C 25.40625 -47.8125 24.347656 -45.484375 22.234375 -43.265625 C 20.117188 -41.054688 17.484375 -39.222656 14.328125 -37.765625 C 11.171875 -36.304688 7.992188 -35.4375 4.796875 -35.15625 C 4.703125 -34.6875 4.628906 -34.257812 4.578125 -33.875 C 4.535156 -33.5 4.515625 -33.125 4.515625 -32.75 C 4.515625 -29.738281 5.476562 -27.597656 7.40625 -26.328125 C 9.34375 -25.054688 11.628906 -24.421875 14.265625 -24.421875 C 16.140625 -24.421875 18.019531 -24.675781 19.90625 -25.1875 C 21.789062 -25.707031 23.53125 -26.394531 25.125 -27.25 C 27.945312 -28.84375 30.695312 -31.050781 33.375 -33.875 C 36.0625 -36.695312 38.628906 -40.179688 41.078125 -44.328125 C 41.640625 -45.171875 42.441406 -45.59375 43.484375 -45.59375 C 44.046875 -45.59375 44.515625 -45.453125 44.890625 -45.171875 C 45.828125 -44.796875 46.296875 -44 46.296875 -42.78125 C 46.296875 -42.300781 46.15625 -41.828125 45.875 -41.359375 C 40.601562 -32.703125 35.257812 -26.773438 29.84375 -23.578125 C 24.4375 -20.378906 19.429688 -18.78125 14.828125 -18.78125 Z M 6.78125 -41.21875 C 9.132812 -41.59375 11.320312 -42.34375 13.34375 -43.46875 C 15.363281 -44.601562 16.984375 -45.875 18.203125 -47.28125 C 19.429688 -48.695312 19.90625 -49.925781 19.625 -50.96875 C 19.53125 -51.625 18.960938 -51.953125 17.921875 -51.953125 C 16.609375 -51.953125 14.890625 -51.148438 12.765625 -49.546875 C 10.648438 -47.953125 8.65625 -45.175781 6.78125 -41.21875 Z M 6.78125 -41.21875 "/></g></g></g></g></g><path fill="#800080" d="M 109.960938 133.113281 C 150.734375 133.113281 183.789062 142.488281 183.789062 154.046875 C 183.789062 165.605469 150.734375 174.972656 109.960938 174.972656 C 69.1875 174.972656 36.136719 165.605469 36.136719 154.046875 C 36.136719 142.488281 69.1875 133.113281 109.960938 133.113281 C 60.589844 133.113281 20.5625 144.460938 20.5625 158.457031 C 20.5625 172.457031 60.589844 183.808594 109.960938 183.808594 C 159.335938 183.808594 199.363281 172.457031 199.363281 158.457031 C 199.363281 144.460938 159.335938 133.113281 109.960938 133.113281 " fill-opacity="1" fill-rule="nonzero"/><path fill="#800080" d="M 112.433594 109.59375 C 153.207031 109.59375 186.253906 118.964844 186.253906 130.519531 C 186.253906 142.085938 153.207031 151.457031 112.433594 151.457031 C 71.664062 151.457031 38.605469 142.085938 38.605469 130.519531 C 38.605469 118.964844 71.664062 109.59375 112.433594 109.59375 C 63.058594 109.59375 23.03125 120.9375 23.03125 134.941406 C 23.03125 148.941406 63.058594 160.285156 112.433594 160.285156 C 161.804688 160.285156 201.828125 148.941406 201.828125 134.941406 C 201.828125 120.9375 161.804688 109.59375 112.433594 109.59375 " fill-opacity="1" fill-rule="nonzero"/><path fill="#800080" d="M 99.566406 163.28125 C 132.582031 163.28125 159.34375 170.867188 159.34375 180.230469 C 159.34375 189.589844 132.582031 197.175781 99.566406 197.175781 C 66.558594 197.175781 39.792969 189.589844 39.792969 180.230469 C 39.792969 170.867188 66.558594 163.28125 99.566406 163.28125 C 59.589844 163.28125 27.183594 172.472656 27.183594 183.808594 C 27.183594 195.140625 59.589844 204.324219 99.566406 204.324219 C 139.542969 204.324219 171.953125 195.140625 171.953125 183.808594 C 171.953125 172.472656 139.542969 163.28125 99.566406 163.28125 " fill-opacity="1" fill-rule="nonzero"/><path fill="#800080" d="M 99.566406 185.878906 C 126.828125 185.878906 148.933594 192.144531 148.933594 199.871094 C 148.933594 207.609375 126.828125 213.871094 99.566406 213.871094 C 72.304688 213.871094 50.203125 207.609375 50.203125 199.871094 C 50.203125 192.144531 72.304688 185.878906 99.566406 185.878906 C 66.558594 185.878906 39.792969 193.472656 39.792969 202.832031 C 39.792969 212.1875 66.558594 219.777344 99.566406 219.777344 C 132.582031 219.777344 159.34375 212.1875 159.34375 202.832031 C 159.34375 193.472656 132.582031 185.878906 99.566406 185.878906 " fill-opacity="1" fill-rule="nonzero"/><path fill="#800080" d="M 99.410156 205.789062 C 121.921875 205.535156 140.230469 210.507812 140.304688 216.886719 C 140.375 223.273438 122.183594 228.648438 99.667969 228.898438 C 77.15625 229.15625 58.847656 224.1875 58.777344 217.796875 C 58.707031 211.417969 76.902344 206.039062 99.410156 205.789062 C 72.152344 206.089844 50.121094 212.605469 50.207031 220.332031 C 50.289062 228.058594 72.464844 234.078125 99.726562 233.78125 C 126.988281 233.476562 149.015625 226.957031 148.925781 219.234375 C 148.839844 211.503906 126.671875 205.484375 99.410156 205.789062 " fill-opacity="1" fill-rule="nonzero"/><path fill="#800080" d="M 109.960938 222.738281 C 130.679688 222.738281 147.476562 227.5 147.476562 233.378906 C 147.476562 239.253906 130.679688 244.011719 109.960938 244.011719 C 89.242188 244.011719 72.449219 239.253906 72.449219 233.378906 C 72.449219 227.5 89.242188 222.738281 109.960938 222.738281 C 84.875 222.738281 64.535156 228.507812 64.535156 235.617188 C 64.535156 242.734375 84.875 248.492188 109.960938 248.492188 C 135.050781 248.492188 155.386719 242.734375 155.386719 235.617188 C 155.386719 228.507812 135.050781 222.738281 109.960938 222.738281 " fill-opacity="1" fill-rule="nonzero"/><path fill="#800080" d="M 115.210938 237.277344 C 134.21875 237.277344 149.632812 241.640625 149.632812 247.035156 C 149.632812 252.425781 134.21875 256.792969 115.210938 256.792969 C 96.199219 256.792969 80.785156 252.425781 80.785156 247.035156 C 80.785156 241.640625 96.199219 237.277344 115.210938 237.277344 C 92.183594 237.277344 73.523438 242.5625 73.523438 249.097656 C 73.523438 255.617188 92.183594 260.910156 115.210938 260.910156 C 138.230469 260.910156 156.894531 255.617188 156.894531 249.097656 C 156.894531 242.5625 138.230469 237.277344 115.210938 237.277344 " fill-opacity="1" fill-rule="nonzero"/><path fill="#800080" d="M 115.210938 251.082031 C 132.953125 251.082031 147.339844 255.15625 147.339844 260.183594 C 147.339844 265.222656 132.953125 269.300781 115.210938 269.300781 C 97.464844 269.300781 83.082031 265.222656 83.082031 260.183594 C 83.082031 255.15625 97.464844 251.082031 115.210938 251.082031 C 93.722656 251.082031 76.304688 256.019531 76.304688 262.105469 C 76.304688 268.203125 93.722656 273.144531 115.210938 273.144531 C 136.695312 273.144531 154.117188 268.203125 154.117188 262.105469 C 154.117188 256.019531 136.695312 251.082031 115.210938 251.082031 " fill-opacity="1" fill-rule="nonzero"/><path fill="#800080" d="M 115.210938 265.128906 C 131.308594 265.128906 144.351562 268.828125 144.351562 273.386719 C 144.351562 277.953125 131.308594 281.652344 115.210938 281.652344 C 99.113281 281.652344 86.066406 277.953125 86.066406 273.386719 C 86.066406 268.828125 99.113281 265.128906 115.210938 265.128906 C 95.71875 265.128906 79.921875 269.609375 79.921875 275.136719 C 79.921875 280.652344 95.71875 285.136719 115.210938 285.136719 C 134.703125 285.136719 150.503906 280.652344 150.503906 275.136719 C 150.503906 269.609375 134.703125 265.128906 115.210938 265.128906 " fill-opacity="1" fill-rule="nonzero"/><path fill="#800080" d="M 116.683594 275.136719 C 129.972656 275.136719 140.746094 278.195312 140.746094 281.960938 C 140.746094 285.71875 129.972656 288.78125 116.683594 288.78125 C 103.394531 288.78125 92.617188 285.71875 92.617188 281.960938 C 92.617188 278.195312 103.394531 275.136719 116.683594 275.136719 C 100.589844 275.136719 87.546875 278.832031 87.546875 283.394531 C 87.546875 287.960938 100.589844 291.65625 116.683594 291.65625 C 132.777344 291.65625 145.816406 287.960938 145.816406 283.394531 C 145.816406 278.832031 132.777344 275.136719 116.683594 275.136719 " fill-opacity="1" fill-rule="nonzero"/><path fill="#800080" d="M 116.683594 287.304688 C 127.167969 287.304688 135.65625 289.707031 135.65625 292.683594 C 135.65625 295.660156 127.167969 298.0625 116.683594 298.0625 C 106.203125 298.0625 97.710938 295.660156 97.710938 292.683594 C 97.710938 289.707031 106.203125 287.304688 116.683594 287.304688 C 103.996094 287.304688 93.703125 290.21875 93.703125 293.8125 C 93.703125 297.414062 103.996094 300.328125 116.683594 300.328125 C 129.378906 300.328125 139.664062 297.414062 139.664062 293.8125 C 139.664062 290.21875 129.378906 287.304688 116.683594 287.304688 " fill-opacity="1" fill-rule="nonzero"/><path fill="#800080" d="M 115.210938 296.304688 C 123.859375 296.304688 130.875 298.292969 130.875 300.746094 C 130.875 303.195312 123.859375 305.1875 115.210938 305.1875 C 106.558594 305.1875 99.546875 303.195312 99.546875 300.746094 C 99.546875 298.292969 106.558594 296.304688 115.210938 296.304688 C 104.730469 296.304688 96.242188 298.710938 96.242188 301.6875 C 96.242188 304.65625 104.730469 307.0625 115.210938 307.0625 C 125.683594 307.0625 134.175781 304.65625 134.175781 301.6875 C 134.175781 298.710938 125.683594 296.304688 115.210938 296.304688 " fill-opacity="1" fill-rule="nonzero"/><path fill="#800080" d="M 113.914062 304.542969 C 120.453125 304.542969 125.753906 306.039062 125.753906 307.902344 C 125.753906 309.75 120.453125 311.261719 113.914062 311.261719 C 107.371094 311.261719 102.066406 309.75 102.066406 307.902344 C 102.066406 306.039062 107.371094 304.542969 113.914062 304.542969 C 105.992188 304.542969 99.566406 306.359375 99.566406 308.601562 C 99.566406 310.855469 105.992188 312.675781 113.914062 312.675781 C 121.835938 312.675781 128.257812 310.855469 128.257812 308.601562 C 128.257812 306.359375 121.835938 304.542969 113.914062 304.542969 " fill-opacity="1" fill-rule="nonzero"/><g clip-path="url(#6a0f8acbdd)"><path fill="#800080" d="M 112.433594 311.546875 C 116.183594 311.546875 119.21875 312.410156 119.21875 313.480469 C 119.21875 314.539062 116.183594 315.398438 112.433594 315.398438 C 108.683594 315.398438 105.640625 314.539062 105.640625 313.480469 C 105.640625 312.410156 108.683594 311.546875 112.433594 311.546875 C 107.890625 311.546875 104.207031 312.585938 104.207031 313.882812 C 104.207031 315.171875 107.890625 316.214844 112.433594 316.214844 C 116.96875 316.214844 120.652344 315.171875 120.652344 313.882812 C 120.652344 312.585938 116.96875 311.546875 112.433594 311.546875 " fill-opacity="1" fill-rule="nonzero"/></g><path fill="#800080" d="M 151.339844 141.511719 C 151.339844 141.511719 155.046875 91.25 216.917969 70.878906 C 216.917969 70.878906 145.296875 69.011719 151.339844 141.511719 " fill-opacity="1" fill-rule="nonzero"/><g clip-path="url(#5d0c5d91bd)"><path fill="#800080" d="M 12.65625 85.457031 C 12.65625 85.457031 62.914062 89.160156 83.289062 151.035156 C 83.289062 151.035156 85.148438 79.414062 12.65625 85.457031 " fill-opacity="1" fill-rule="nonzero"/></g><g transform="matrix(1, 0, 0, 1, 208, 107)"><g clip-path="url(#09aee4c9eb)"><g fill="#800080" fill-opacity="1"><g transform="translate(0.278363, 95.891196)"><g><path d="M 71.515625 -38.328125 L 71.515625 -16.21875 C 68.316406 -11.101562 64.03125 -6.976562 58.65625 -3.84375 C 53.28125 -0.707031 47.285156 0.859375 40.671875 0.859375 C 35.398438 0.859375 30.523438 -0.132812 26.046875 -2.125 C 21.566406 -4.125 17.648438 -6.863281 14.296875 -10.34375 C 10.953125 -13.832031 8.351562 -17.875 6.5 -22.46875 C 4.65625 -27.0625 3.734375 -31.988281 3.734375 -37.25 C 3.734375 -42.519531 4.65625 -47.445312 6.5 -52.03125 C 8.351562 -56.625 10.953125 -60.664062 14.296875 -64.15625 C 17.648438 -67.644531 21.566406 -70.382812 26.046875 -72.375 C 30.523438 -74.363281 35.398438 -75.359375 40.671875 -75.359375 C 47.285156 -75.359375 53.257812 -73.8125 58.59375 -70.71875 C 63.9375 -67.625 68.242188 -63.476562 71.515625 -58.28125 L 64.6875 -54.96875 C 62.050781 -58.8125 58.671875 -61.90625 54.546875 -64.25 C 50.421875 -66.601562 45.796875 -67.78125 40.671875 -67.78125 C 35.046875 -67.78125 30.046875 -66.410156 25.671875 -63.671875 C 21.296875 -60.929688 17.863281 -57.25 15.375 -52.625 C 12.882812 -48 11.640625 -42.875 11.640625 -37.25 C 11.640625 -31.632812 12.882812 -26.507812 15.375 -21.875 C 17.863281 -17.25 21.296875 -13.566406 25.671875 -10.828125 C 30.046875 -8.085938 35.046875 -6.71875 40.671875 -6.71875 C 45.367188 -6.71875 49.78125 -7.769531 53.90625 -9.875 C 58.03125 -11.976562 61.34375 -14.664062 63.84375 -17.9375 L 63.84375 -30.640625 L 40.453125 -30.640625 L 40.453125 -38.328125 Z M 71.515625 -38.328125 "/></g></g></g><g fill="#800080" fill-opacity="1"><g transform="translate(76.602086, 95.891196)"><g><path d="M 27.640625 -52.203125 C 32.554688 -52.203125 36.738281 -51.007812 40.1875 -48.625 C 43.644531 -46.238281 46.296875 -43.035156 48.140625 -39.015625 C 49.992188 -34.992188 50.921875 -30.53125 50.921875 -25.625 C 50.921875 -25.195312 50.898438 -24.75 50.859375 -24.28125 C 50.828125 -23.820312 50.8125 -23.378906 50.8125 -22.953125 L 11.203125 -22.953125 C 11.773438 -18.328125 13.570312 -14.460938 16.59375 -11.359375 C 19.625 -8.265625 23.519531 -6.71875 28.28125 -6.71875 C 31.488281 -6.71875 34.265625 -7.394531 36.609375 -8.75 C 38.960938 -10.101562 40.921875 -11.988281 42.484375 -14.40625 L 49.21875 -11.109375 C 47.082031 -7.472656 44.234375 -4.585938 40.671875 -2.453125 C 37.109375 -0.316406 32.976562 0.75 28.28125 0.75 C 23.445312 0.75 19.125 -0.421875 15.3125 -2.765625 C 11.507812 -5.117188 8.539062 -8.304688 6.40625 -12.328125 C 4.269531 -16.347656 3.203125 -20.78125 3.203125 -25.625 C 3.203125 -30.53125 4.210938 -34.992188 6.234375 -39.015625 C 8.265625 -43.035156 11.128906 -46.238281 14.828125 -48.625 C 18.535156 -51.007812 22.804688 -52.203125 27.640625 -52.203125 Z M 27.640625 -44.734375 C 23.304688 -44.734375 19.734375 -43.394531 16.921875 -40.71875 C 14.109375 -38.050781 12.3125 -34.691406 11.53125 -30.640625 L 43.015625 -30.640625 C 42.304688 -34.691406 40.671875 -38.050781 38.109375 -40.71875 C 35.546875 -43.394531 32.054688 -44.734375 27.640625 -44.734375 Z M 27.640625 -44.734375 "/></g></g></g><g fill="#800080" fill-opacity="1"><g transform="translate(131.256278, 95.891196)"><g><path d="M 23.703125 -29.671875 C 26.617188 -29.109375 29.445312 -28.273438 32.1875 -27.171875 C 34.925781 -26.066406 37.203125 -24.515625 39.015625 -22.515625 C 40.828125 -20.523438 41.734375 -17.894531 41.734375 -14.625 C 41.734375 -11.0625 40.804688 -8.125 38.953125 -5.8125 C 37.109375 -3.5 34.757812 -1.804688 31.90625 -0.734375 C 29.0625 0.328125 26.078125 0.859375 22.953125 0.859375 C 17.972656 0.859375 13.703125 -0.257812 10.140625 -2.5 C 6.578125 -4.75 4.085938 -7.648438 2.671875 -11.203125 L 9.71875 -14.09375 C 10.5 -11.8125 12.046875 -10.03125 14.359375 -8.75 C 16.671875 -7.46875 19.535156 -6.828125 22.953125 -6.828125 C 24.378906 -6.828125 25.941406 -7.039062 27.640625 -7.46875 C 29.347656 -7.894531 30.828125 -8.675781 32.078125 -9.8125 C 33.328125 -10.957031 33.953125 -12.5625 33.953125 -14.625 C 33.953125 -16.6875 33.128906 -18.234375 31.484375 -19.265625 C 29.847656 -20.296875 26.753906 -21.273438 22.203125 -22.203125 C 19.640625 -22.703125 16.988281 -23.359375 14.25 -24.171875 C 11.507812 -24.992188 9.109375 -26.257812 7.046875 -27.96875 C 4.984375 -29.675781 3.703125 -32.128906 3.203125 -35.328125 C 2.773438 -38.390625 3.269531 -41.203125 4.6875 -43.765625 C 6.113281 -46.328125 8.25 -48.375 11.09375 -49.90625 C 13.945312 -51.4375 17.257812 -52.203125 21.03125 -52.203125 C 25.507812 -52.203125 29.367188 -51.1875 32.609375 -49.15625 C 35.847656 -47.125 38.035156 -44.4375 39.171875 -41.09375 L 32.03125 -38.328125 C 30.675781 -42.234375 27.046875 -44.296875 21.140625 -44.515625 C 17.429688 -44.660156 14.707031 -43.894531 12.96875 -42.21875 C 11.226562 -40.550781 10.535156 -38.679688 10.890625 -36.609375 C 11.242188 -34.617188 12.539062 -33.175781 14.78125 -32.28125 C 17.019531 -31.394531 19.992188 -30.523438 23.703125 -29.671875 Z M 23.703125 -29.671875 "/></g></g></g><g fill="#800080" fill-opacity="1"><g transform="translate(176.730277, 95.891196)"><g><path d="M 28.5 -9.078125 L 32.453125 -3.203125 C 30.671875 -1.703125 28.625 -0.617188 26.3125 0.046875 C 24 0.722656 22.023438 0.957031 20.390625 0.75 C 17.046875 0.394531 14.394531 -1.007812 12.4375 -3.46875 C 10.476562 -5.925781 9.5 -10.109375 9.5 -16.015625 C 9.5 -17.578125 9.5 -19.851562 9.5 -22.84375 C 9.5 -25.832031 9.5 -29.160156 9.5 -32.828125 C 9.5 -36.492188 9.5 -40.101562 9.5 -43.65625 L 1.59375 -43.65625 L 1.59375 -51.453125 L 9.5 -51.453125 C 9.5 -55.015625 9.5 -57.789062 9.5 -59.78125 C 9.5 -61.769531 9.5 -62.765625 9.5 -62.765625 L 17.296875 -64.90625 C 17.296875 -64.90625 17.296875 -63.550781 17.296875 -60.84375 C 17.296875 -58.144531 17.296875 -55.015625 17.296875 -51.453125 L 28.1875 -51.453125 L 28.1875 -43.65625 L 17.296875 -43.65625 C 17.296875 -39.957031 17.296875 -36.238281 17.296875 -32.5 C 17.296875 -28.769531 17.296875 -25.441406 17.296875 -22.515625 C 17.296875 -19.597656 17.296875 -17.5 17.296875 -16.21875 C 17.296875 -14.09375 17.398438 -12.367188 17.609375 -11.046875 C 17.828125 -9.734375 18.398438 -8.6875 19.328125 -7.90625 C 20.179688 -7.1875 21.53125 -6.863281 23.375 -6.9375 C 25.226562 -7.007812 26.9375 -7.722656 28.5 -9.078125 Z M 28.5 -9.078125 "/></g></g></g><g fill="#800080" fill-opacity="1"><g transform="translate(210.782395, 95.891196)"><g><path d="M 45.375 0 L 37.6875 0 L 37.6875 -6.1875 C 35.40625 -4.195312 32.769531 -2.539062 29.78125 -1.21875 C 26.789062 0.09375 23.445312 0.75 19.75 0.75 C 14.976562 0.75 11.023438 -0.382812 7.890625 -2.65625 C 4.765625 -4.9375 3.203125 -8.25 3.203125 -12.59375 C 3.203125 -17.644531 5.175781 -21.46875 9.125 -24.0625 C 13.070312 -26.664062 19 -28.609375 26.90625 -29.890625 C 30.882812 -30.523438 33.726562 -31.285156 35.4375 -32.171875 C 37.144531 -33.066406 37.960938 -34.367188 37.890625 -36.078125 C 37.890625 -37.285156 37.585938 -38.601562 36.984375 -40.03125 C 36.378906 -41.457031 35.238281 -42.6875 33.5625 -43.71875 C 31.894531 -44.75 29.425781 -45.265625 26.15625 -45.265625 C 23.164062 -45.265625 20.796875 -44.835938 19.046875 -43.984375 C 17.304688 -43.128906 16.007812 -42.023438 15.15625 -40.671875 C 14.300781 -39.316406 13.660156 -37.894531 13.234375 -36.40625 L 6.40625 -38 C 6.90625 -40.351562 7.921875 -42.613281 9.453125 -44.78125 C 10.984375 -46.945312 13.132812 -48.722656 15.90625 -50.109375 C 18.675781 -51.503906 22.164062 -52.203125 26.375 -52.203125 C 32.34375 -52.203125 36.984375 -50.617188 40.296875 -47.453125 C 43.609375 -44.285156 45.265625 -39.960938 45.265625 -34.484375 C 45.265625 -32.421875 45.265625 -29.910156 45.265625 -26.953125 C 45.265625 -24.003906 45.28125 -20.960938 45.3125 -17.828125 C 45.351562 -14.691406 45.375 -11.769531 45.375 -9.0625 C 45.375 -6.363281 45.375 -4.175781 45.375 -2.5 C 45.375 -0.832031 45.375 0 45.375 0 Z M 20.390625 -6.515625 C 23.734375 -6.515625 26.738281 -7.171875 29.40625 -8.484375 C 32.070312 -9.804688 34.171875 -11.640625 35.703125 -13.984375 C 37.234375 -16.328125 37.960938 -19.03125 37.890625 -22.09375 L 37.890625 -24.453125 C 36.546875 -24.160156 35.035156 -23.90625 33.359375 -23.6875 C 31.679688 -23.476562 29.882812 -23.195312 27.96875 -22.84375 C 22.414062 -21.914062 18.25 -20.773438 15.46875 -19.421875 C 12.695312 -18.078125 11.3125 -15.976562 11.3125 -13.125 C 11.3125 -11.28125 11.898438 -9.875 13.078125 -8.90625 C 14.253906 -7.945312 15.550781 -7.304688 16.96875 -6.984375 C 18.394531 -6.671875 19.535156 -6.515625 20.390625 -6.515625 Z M 35.765625 -71.515625 L 42.8125 -69.390625 C 41.664062 -65.546875 40.113281 -62.960938 38.15625 -61.640625 C 36.207031 -60.328125 34.019531 -59.921875 31.59375 -60.421875 C 29.175781 -60.921875 26.6875 -61.878906 24.125 -63.296875 C 22.132812 -64.515625 20.375 -65.050781 18.84375 -64.90625 C 17.3125 -64.757812 15.90625 -63.550781 14.625 -61.28125 L 8.328125 -64.578125 C 10.390625 -68.773438 13.019531 -71.335938 16.21875 -72.265625 C 19.425781 -73.191406 22.953125 -72.585938 26.796875 -70.453125 C 28.148438 -69.742188 29.410156 -69.140625 30.578125 -68.640625 C 31.753906 -68.140625 32.804688 -68.066406 33.734375 -68.421875 C 34.660156 -68.773438 35.335938 -69.804688 35.765625 -71.515625 Z M 35.765625 -71.515625 "/></g></g></g><g fill="#800080" fill-opacity="1"><g transform="translate(260.953252, 95.891196)"><g><path d="M 28.5 -52.203125 C 33.414062 -52.203125 37.757812 -51.007812 41.53125 -48.625 C 45.300781 -46.238281 48.253906 -43.035156 50.390625 -39.015625 C 52.523438 -34.992188 53.59375 -30.53125 53.59375 -25.625 C 53.59375 -20.707031 52.523438 -16.253906 50.390625 -12.265625 C 48.253906 -8.285156 45.300781 -5.101562 41.53125 -2.71875 C 37.757812 -0.332031 33.414062 0.859375 28.5 0.859375 C 23.664062 0.859375 19.378906 -0.332031 15.640625 -2.71875 C 11.898438 -5.101562 8.976562 -8.285156 6.875 -12.265625 C 4.78125 -16.253906 3.734375 -20.707031 3.734375 -25.625 C 3.734375 -30.53125 4.78125 -34.992188 6.875 -39.015625 C 8.976562 -43.035156 11.898438 -46.238281 15.640625 -48.625 C 19.378906 -51.007812 23.664062 -52.203125 28.5 -52.203125 Z M 28.5 -6.71875 C 32.0625 -6.71875 35.125 -7.554688 37.6875 -9.234375 C 40.25 -10.910156 42.238281 -13.1875 43.65625 -16.0625 C 45.082031 -18.945312 45.796875 -22.132812 45.796875 -25.625 C 45.796875 -29.175781 45.082031 -32.394531 43.65625 -35.28125 C 42.238281 -38.164062 40.25 -40.460938 37.6875 -42.171875 C 35.125 -43.878906 32.0625 -44.734375 28.5 -44.734375 C 25.007812 -44.734375 21.984375 -43.878906 19.421875 -42.171875 C 16.859375 -40.460938 14.898438 -38.164062 13.546875 -35.28125 C 12.203125 -32.394531 11.53125 -29.175781 11.53125 -25.625 C 11.53125 -22.132812 12.203125 -18.945312 13.546875 -16.0625 C 14.898438 -13.1875 16.859375 -10.910156 19.421875 -9.234375 C 21.984375 -7.554688 25.007812 -6.71875 28.5 -6.71875 Z M 28.5 -6.71875 "/></g></g></g><g fill="#800080" fill-opacity="1"><g transform="translate(318.279356, 95.891196)"><g/></g></g></g></g><g clip-path="url(#a6530a61b0)"><path fill="#d4af37" d="M 376.292969 264.1875 C 376.253906 264.078125 376.214844 263.964844 376.175781 263.855469 C 376.101562 264.019531 376.027344 264.1875 375.953125 264.355469 C 376.066406 264.300781 376.179688 264.242188 376.292969 264.1875 Z M 510.84375 265.472656 L 510.789062 265.535156 Z M 304.449219 269.003906 C 302.773438 270.164062 300.980469 270.871094 298.886719 270.890625 C 296.589844 270.914062 294.289062 271.074219 291.996094 271.257812 C 290.015625 271.417969 288.042969 271.695312 286.066406 271.917969 C 285.003906 272.035156 283.9375 272.285156 282.878906 272.238281 C 281.328125 272.175781 279.851562 272.4375 278.332031 272.664062 C 276.371094 272.957031 274.363281 272.9375 272.375 272.992188 C 268.089844 273.113281 263.828125 273.539062 259.566406 273.933594 C 259.105469 273.976562 258.648438 274.082031 258.195312 274.066406 C 256.675781 274.007812 255.507812 273.316406 255.015625 271.859375 C 254.730469 271.015625 254.679688 270.074219 254.640625 269.171875 C 254.613281 268.542969 255.539062 267.6875 256.144531 267.621094 C 256.292969 267.605469 256.445312 267.585938 256.597656 267.582031 C 260.578125 267.492188 264.574219 267.574219 268.542969 267.28125 C 279.09375 266.492188 289.636719 265.535156 300.179688 264.667969 C 303.394531 264.402344 306.609375 264.195312 309.828125 264.003906 C 317.785156 263.53125 325.703125 262.320312 333.707031 262.675781 C 339.652344 261.714844 345.652344 261.980469 351.621094 261.96875 C 357.140625 261.957031 362.65625 261.992188 368.175781 261.769531 C 373.835938 261.546875 379.503906 261.378906 385.171875 261.207031 C 386.550781 261.160156 387.945312 261.074219 389.308594 261.230469 C 393.601562 261.71875 397.886719 261.484375 402.179688 261.335938 C 406.472656 261.1875 410.769531 261.164062 415.0625 261.246094 C 425.027344 261.433594 434.984375 261.816406 444.960938 261.765625 C 452.316406 261.730469 459.671875 262.140625 467.027344 262.351562 C 467.796875 262.378906 468.558594 262.4375 469.328125 262.449219 C 476.84375 262.550781 484.359375 262.558594 491.867188 262.785156 C 496.609375 262.929688 501.335938 263.398438 506.074219 263.714844 C 506.835938 263.765625 507.613281 263.847656 508.371094 263.773438 C 514.550781 263.148438 520.574219 264.664062 526.679688 265.078125 C 528.238281 265.183594 529.304688 266.242188 530.867188 266.902344 C 529.171875 267.714844 528.164062 266.949219 527.074219 266.40625 C 526.21875 265.980469 526.1875 266.046875 524.558594 267.242188 C 523.566406 266.828125 522.480469 266.371094 521.296875 265.875 C 520.417969 266.511719 519.652344 267.25 518.738281 267.691406 C 517.789062 268.148438 516.703125 268.324219 515.84375 268.574219 C 512.261719 267.601562 508.921875 266.367188 505.316406 267.195312 C 501.109375 265.996094 496.765625 267.671875 492.546875 266.582031 C 491.984375 266.4375 491.308594 266.53125 490.730469 266.6875 C 488.738281 267.222656 486.804688 267.101562 484.835938 266.519531 C 483.984375 266.269531 483.019531 266.230469 482.128906 266.324219 C 478.457031 266.703125 474.816406 266.839844 471.136719 266.304688 C 469.492188 266.066406 467.75 266.207031 466.09375 266.457031 C 464.125 266.753906 462.273438 266.917969 460.28125 266.289062 C 458.875 265.84375 457.234375 266.003906 455.820312 266.824219 C 454.828125 267.402344 453.761719 267.40625 452.699219 267.109375 C 449.246094 266.144531 445.710938 266.4375 442.203125 266.449219 C 437.914062 266.464844 433.621094 266.59375 429.335938 266.695312 C 427.652344 266.734375 425.941406 266.652344 424.300781 266.933594 C 420.78125 267.539062 417.265625 267.523438 413.757812 267.15625 C 410.539062 266.816406 407.335938 266.796875 404.109375 266.953125 C 402.582031 267.03125 401.042969 266.980469 399.507812 266.945312 C 398.902344 266.929688 398.203125 266.972656 397.707031 266.695312 C 393.859375 264.542969 390.058594 265.484375 386.230469 266.714844 C 385.515625 266.945312 384.734375 267.15625 384.007812 267.105469 C 383.277344 267.054688 382.480469 266.800781 381.882812 266.390625 C 381.132812 265.878906 381.601562 264.996094 381.589844 264.261719 C 381.589844 264.148438 381.441406 264.03125 381.21875 263.722656 C 380.785156 264.140625 380.296875 264.476562 379.980469 264.933594 C 379.132812 266.167969 378.09375 266.855469 376.507812 266.71875 C 375.617188 266.636719 374.671875 266.742188 373.789062 266.933594 C 371.945312 267.339844 370.15625 267.292969 368.34375 266.730469 C 366.867188 266.269531 365.367188 266.1875 363.808594 266.503906 C 362.375 266.792969 360.957031 266.40625 359.417969 267.035156 C 356.855469 268.074219 354.078125 268.34375 351.402344 266.882812 C 349.972656 266.105469 348.441406 266.269531 346.972656 267.003906 C 344.535156 268.234375 341.933594 268.128906 339.316406 267.917969 C 338.257812 267.832031 337.125 267.574219 336.140625 267.832031 C 334.453125 268.265625 332.84375 268.386719 331.160156 267.933594 C 330.589844 267.777344 329.816406 267.628906 329.371094 267.886719 C 327.339844 269.046875 325.152344 268.425781 323.046875 268.613281 C 318.472656 269.015625 313.890625 269.324219 309.308594 269.613281 C 307.640625 269.71875 305.921875 269.953125 304.390625 268.945312 L 304.449219 269.003906 " fill-opacity="1" fill-rule="nonzero"/></g></svg>